<?xml version="1.0" encoding="UTF-8"?>
<svg xmlns="http://www.w3.org/2000/svg" xmlns:xlink="http://www.w3.org/1999/xlink" width="2836" height="2836" viewBox="0 0 2836 2836">

<path fill-rule="evenodd" fill="rgb(0%, 0%, 0%)" fill-opacity="1" d="M 1128.589844 902.199219 C 1316.859375 868.988281 1509.679688 867.53125 1707.648438 902.199219 C 1772.628906 913.578125 1827.589844 956.179688 1827.589844 1022.140625 L 1827.589844 2334.945312 C 1827.589844 2400.914062 1773.390625 2449.390625 1707.648438 2454.882812 C 1511.648438 2471.257812 1318.121094 2474.066406 1128.589844 2454.882812 C 1062.960938 2448.238281 1008.648438 2400.914062 1008.648438 2334.945312 L 1008.648438 1022.140625 C 1008.648438 956.179688 1063.628906 913.660156 1128.589844 902.199219 Z M 1654.21875 662.578125 C 1660.621094 672.878906 1675.378906 676.710938 1687.191406 671.121094 C 1699 665.53125 1703.378906 652.648438 1696.980469 642.339844 C 1671.109375 600.738281 1630.910156 565.710938 1581.480469 541.328125 C 1533.96875 517.890625 1478.070312 504.351562 1418.398438 504.351562 C 1358.511719 504.351562 1302.460938 517.960938 1254.890625 541.488281 C 1205.488281 565.941406 1165.300781 601.128906 1139.460938 642.988281 C 1133.109375 653.300781 1137.539062 666.148438 1149.351562 671.691406 C 1161.148438 677.230469 1175.871094 673.371094 1182.230469 663.058594 C 1203.730469 628.21875 1237.371094 598.828125 1278.828125 578.320312 C 1319.179688 558.351562 1367.011719 546.808594 1418.398438 546.808594 C 1469.71875 546.808594 1517.449219 558.289062 1557.71875 578.148438 C 1599 598.511719 1632.589844 627.78125 1654.21875 662.578125 Z M 1559.558594 762.070312 C 1564.761719 772.828125 1578.96875 777.878906 1591.300781 773.351562 C 1603.628906 768.820312 1609.421875 756.410156 1604.230469 745.648438 C 1589.46875 715.109375 1563.441406 689.160156 1530.28125 671.078125 C 1498.371094 653.691406 1459.820312 643.511719 1418.398438 643.511719 C 1376.941406 643.511719 1338.371094 653.710938 1306.449219 671.121094 C 1273.269531 689.230469 1247.238281 715.210938 1232.511719 745.769531 C 1227.308594 756.53125 1233.101562 768.941406 1245.429688 773.46875 C 1257.769531 778.011719 1271.980469 772.960938 1277.171875 762.191406 C 1287.949219 739.828125 1307.289062 720.648438 1332.109375 707.109375 C 1356.550781 693.78125 1386.269531 685.96875 1418.398438 685.96875 C 1450.5 685.96875 1480.199219 693.761719 1504.621094 707.078125 C 1529.429688 720.601562 1548.769531 739.738281 1559.558594 762.070312 Z M 1729.828125 544.671875 C 1737.539062 554.238281 1752.691406 556.550781 1763.660156 549.808594 C 1774.628906 543.078125 1777.269531 529.859375 1769.550781 520.289062 C 1731.738281 473.289062 1679.5 434.390625 1617.851562 407.578125 C 1558.589844 381.800781 1490.609375 367.140625 1418.398438 367.140625 C 1346.089844 367.140625 1277.929688 381.921875 1218.441406 407.878906 C 1156.660156 434.851562 1104.371094 473.929688 1066.628906 521.128906 C 1058.96875 530.699219 1061.648438 543.878906 1072.621094 550.570312 C 1083.589844 557.261719 1098.691406 554.921875 1106.359375 545.339844 C 1139.5 503.898438 1185.558594 469.5 1240.109375 445.691406 C 1292.820312 422.691406 1353.570312 409.601562 1418.398438 409.601562 C 1482.898438 409.601562 1543.488281 422.640625 1596.191406 445.558594 C 1650.648438 469.25 1696.671875 503.449219 1729.828125 544.671875 Z M 1247.570312 1844.285156 C 1298.660156 1805.320312 1360 1786.160156 1421.148438 1786.820312 C 1482.460938 1787.480469 1543.578125 1808.03125 1594.011719 1848.453125 C 1597.378906 1851.144531 1597.921875 1856.054688 1595.21875 1859.414062 C 1595.039062 1859.640625 1594.851562 1859.855469 1594.648438 1860.054688 L 1522.359375 1932.363281 C 1519.570312 1935.15625 1515.191406 1935.394531 1512.121094 1933.074219 C 1484.78125 1914.027344 1452.941406 1904.230469 1420.980469 1903.675781 C 1388.851562 1903.121094 1356.589844 1911.910156 1328.609375 1930.054688 C 1325.460938 1932.097656 1321.390625 1931.582031 1318.839844 1929.03125 L 1246.210938 1856.421875 C 1243.160156 1853.371094 1243.160156 1848.421875 1246.210938 1845.367188 C 1246.628906 1844.949219 1247.089844 1844.589844 1247.570312 1844.285156 Z M 1582.660156 1026.46875 L 1693.789062 1026.46875 C 1704.570312 1026.46875 1713.390625 1035.289062 1713.390625 1046.058594 L 1713.390625 1096.589844 C 1713.390625 1107.359375 1704.570312 1116.179688 1693.789062 1116.179688 L 1582.660156 1116.179688 C 1571.878906 1116.179688 1563.058594 1107.359375 1563.058594 1096.589844 L 1563.058594 1046.058594 C 1563.058594 1035.289062 1571.878906 1026.46875 1582.660156 1026.46875 Z M 1197.480469 1518.429688 C 1240.328125 1518.429688 1275.070312 1553.171875 1275.070312 1596.019531 C 1275.070312 1638.871094 1240.328125 1673.609375 1197.480469 1673.609375 C 1154.628906 1673.609375 1119.898438 1638.871094 1119.898438 1596.019531 C 1119.898438 1553.171875 1154.628906 1518.429688 1197.480469 1518.429688 Z M 1638.761719 1518.429688 C 1681.609375 1518.429688 1716.339844 1553.171875 1716.339844 1596.019531 C 1716.339844 1638.871094 1681.609375 1673.609375 1638.761719 1673.609375 C 1595.910156 1673.609375 1561.171875 1638.871094 1561.171875 1596.019531 C 1561.171875 1553.171875 1595.910156 1518.429688 1638.761719 1518.429688 Z M 1418.121094 1518.429688 C 1460.96875 1518.429688 1495.710938 1553.171875 1495.710938 1596.019531 C 1495.710938 1638.871094 1460.96875 1673.609375 1418.121094 1673.609375 C 1375.269531 1673.609375 1340.53125 1638.871094 1340.53125 1596.019531 C 1340.53125 1553.171875 1375.269531 1518.429688 1418.121094 1518.429688 Z M 1197.480469 1242.660156 C 1240.328125 1242.660156 1275.070312 1277.398438 1275.070312 1320.25 C 1275.070312 1363.089844 1240.328125 1397.828125 1197.480469 1397.828125 C 1154.628906 1397.828125 1119.898438 1363.089844 1119.898438 1320.25 C 1119.898438 1277.398438 1154.628906 1242.660156 1197.480469 1242.660156 Z M 1638.761719 1242.660156 C 1681.609375 1242.660156 1716.339844 1277.398438 1716.339844 1320.25 C 1716.339844 1363.089844 1681.609375 1397.828125 1638.761719 1397.828125 C 1595.910156 1397.828125 1561.171875 1363.089844 1561.171875 1320.25 C 1561.171875 1277.398438 1595.910156 1242.660156 1638.761719 1242.660156 Z M 1418.121094 1242.660156 C 1460.96875 1242.660156 1495.710938 1277.398438 1495.710938 1320.25 C 1495.710938 1363.089844 1460.96875 1397.828125 1418.121094 1397.828125 C 1375.269531 1397.828125 1340.53125 1363.089844 1340.53125 1320.25 C 1340.53125 1277.398438 1375.269531 1242.660156 1418.121094 1242.660156 Z M 1645.738281 1902.480469 C 1682.378906 1952.621094 1700.378906 2012.132812 1699.730469 2071.46875 C 1699.089844 2130.835938 1679.789062 2190.050781 1641.828125 2239.554688 C 1639.199219 2242.964844 1634.308594 2243.601562 1630.898438 2240.980469 C 1630.628906 2240.773438 1630.378906 2240.550781 1630.140625 2240.3125 L 1630.128906 2240.332031 L 1557.511719 2167.714844 C 1554.738281 2164.945312 1554.480469 2160.613281 1556.738281 2157.558594 C 1573.628906 2131.34375 1582.339844 2101.382812 1582.871094 2071.304688 C 1583.398438 2041.023438 1575.621094 2010.609375 1559.53125 1983.78125 C 1557.640625 1980.644531 1558.21875 1976.71875 1560.699219 1974.246094 L 1633.679688 1901.25 C 1636.730469 1898.195312 1641.679688 1898.195312 1644.730469 1901.25 C 1645.121094 1901.632812 1645.449219 1902.046875 1645.738281 1902.480469 Z M 1588.671875 2292.570312 C 1539.28125 2330.242188 1480.300781 2349.402344 1421.160156 2350.042969 C 1361.691406 2350.6875 1302.039062 2332.609375 1251.828125 2295.796875 C 1248.359375 2293.234375 1247.628906 2288.34375 1250.191406 2284.875 C 1250.421875 2284.558594 1250.671875 2284.265625 1250.941406 2283.992188 L 1323.929688 2210.996094 C 1326.621094 2208.308594 1330.789062 2207.988281 1333.828125 2210.042969 C 1360.570312 2225.992188 1390.851562 2233.703125 1421 2233.175781 C 1451.21875 2232.652344 1481.328125 2223.855469 1507.628906 2206.800781 C 1510.769531 2204.757812 1514.851562 2205.273438 1517.398438 2207.824219 L 1590.019531 2280.433594 C 1593.078125 2283.484375 1593.078125 2288.433594 1590.019531 2291.484375 C 1589.601562 2291.902344 1589.148438 2292.265625 1588.671875 2292.570312 Z M 1197.808594 2243.898438 C 1157.609375 2193.546875 1137.171875 2132.59375 1136.511719 2071.460938 C 1135.851562 2010.078125 1155.148438 1948.503906 1194.410156 1897.304688 C 1197.039062 1893.894531 1201.929688 1893.257812 1205.339844 1895.878906 C 1205.609375 1896.085938 1205.859375 1896.308594 1206.089844 1896.542969 L 1206.109375 1896.523438 L 1278.730469 1969.140625 C 1281.5 1971.910156 1281.761719 1976.242188 1279.5 1979.300781 C 1261.53125 2007.1875 1252.808594 2039.308594 1253.371094 2071.289062 C 1253.921875 2103.335938 1263.769531 2135.257812 1282.921875 2162.652344 C 1285.140625 2165.808594 1284.691406 2170.035156 1282.050781 2172.664062 L 1209.761719 2244.972656 C 1206.699219 2248.019531 1201.761719 2248.019531 1198.699219 2244.972656 C 1198.371094 2244.632812 1198.070312 2244.277344 1197.808594 2243.898438 Z M 1347.890625 1998.203125 C 1367.289062 1978.808594 1392.699219 1969.117188 1418.121094 1969.113281 C 1443.53125 1969.117188 1468.949219 1978.808594 1488.351562 1998.203125 C 1507.738281 2017.59375 1517.429688 2043.011719 1517.429688 2068.429688 C 1517.429688 2093.84375 1507.730469 2119.261719 1488.351562 2138.652344 C 1468.960938 2158.042969 1443.539062 2167.738281 1418.121094 2167.738281 C 1392.699219 2167.738281 1367.28125 2158.042969 1347.890625 2138.652344 C 1328.5 2119.261719 1318.808594 2093.84375 1318.808594 2068.429688 C 1318.808594 2043.011719 1328.5 2017.59375 1347.890625 1998.203125 "/>
</svg>
